<svg xmlns="http://www.w3.org/2000/svg" viewBox="0 0 1080 1080"><defs><style>.cls-1{fill:#9ca2a7;}.cls-2{fill:#1d2327;}</style></defs><g id="Livello_2" data-name="Livello 2"><g id="Livello_1-2" data-name="Livello 1"><path class="cls-1" d="M1078.5,499.45v81q1.5-20.06,1.5-40.49T1078.5,499.45ZM540,1080q20.46,0,40.55-1.5H499.41Q519.51,1080,540,1080ZM540,0q-20.46,0-40.55,1.5h81Q560.43,0,540,0ZM1.5,580.59V499.51Q0,519.57,0,540T1.5,580.59Z"/><path class="cls-1" d="M750.19,42.44A536.61,536.61,0,0,0,580.49,1.5h-81c-206.12,15.3-380,146.32-457,328.31A536.61,536.61,0,0,0,1.5,499.51v81.08a536.88,536.88,0,0,0,86.19,254.5c99.72,152.54,270.64,243.41,452.89,243.41h0c142.9,0,280.58-55.86,381.53-157a538.11,538.11,0,0,0,156.35-341v-81C1063.2,293.33,932.18,119.41,750.19,42.44Zm-662.94,352V315.64H427.36v78.81H303.52v331.8H211.09V394.45Zm229.81,390.9H289.89v72.8H269.61v-72.8H242.44V768.06h74.62Zm64.22,72.8H361.91V821.88q0-9.36-2.41-13.26a7.28,7.28,0,0,0-3.35-2.88,13.36,13.36,0,0,0-5.55-1,25.12,25.12,0,0,0-4.88.46c-1.52.3-2.88.63-4.09,1v52H322.26V760.39l19.37-3.12V790l.75-.23c1.17-.35,2.58-.68,4.25-1a31.5,31.5,0,0,1,5.92-.59,36.47,36.47,0,0,1,13.84,2.28l.06,0,.08,0a21.44,21.44,0,0,1,8.7,6.37,24.94,24.94,0,0,1,4.68,9.88,55,55,0,0,1,1.37,12.74Zm71.88-31.39c-.08,1.34-.17,2.53-.26,3.57H409a12.9,12.9,0,0,0,5.59,9.49,16.2,16.2,0,0,0,3.62,1.92,26.42,26.42,0,0,0,9.64,1.59,56,56,0,0,0,10.47-1,39,39,0,0,0,8.38-2.41l.1.59,2.5,15.14a26.49,26.49,0,0,1-4.16,1.56,54.28,54.28,0,0,1-5.78,1.37c-2.13.39-4.4.71-6.83,1a68.15,68.15,0,0,1-7.28.39,43.15,43.15,0,0,1-15.84-2.65l-.21-.08a31.3,31.3,0,0,1-11.31-7.47,29.69,29.69,0,0,1-6.63-11.25,44.51,44.51,0,0,1-2.15-14,41.69,41.69,0,0,1,2.8-15.92,34.22,34.22,0,0,1,7.34-11.38,30.62,30.62,0,0,1,10.47-6.89A32.73,32.73,0,0,1,421.83,788a35,35,0,0,1,13.69,2.51,8.09,8.09,0,0,1,.76.31,27,27,0,0,1,8.56,6.09q8.46,8.89,8.45,26.19C453.29,824.18,453.25,825.42,453.16,826.76ZM557,858.46H537.64V822.19q0-9.36-2.41-13.26T527,805a17.53,17.53,0,0,0-4.36.78,17,17,0,0,0-4.61,2,30.5,30.5,0,0,1,1.17,6.31q.26,3.31.26,7.08v37.31H500.07V822.19q0-9.36-2.41-13.26t-8.25-3.9c-1.22,0-2.47.07-3.77.2s-2.56.28-3.77.45v52.78H462.5v-66c1.64-.43,3.36-.71,5.5-1.42a40,40,0,0,1,7-2c2.47-.39,5.4-.79,8-1s5.48,0,8,0a29,29,0,0,1,11.6,2.41,27.12,27.12,0,0,1,7.61,4.48,33.46,33.46,0,0,1,9.55-4.68A34,34,0,0,1,530,789c5.46,0,9.65.28,13.16,1.8a20.26,20.26,0,0,1,8.39,6.43,24.41,24.41,0,0,1,4.29,9.88A63.81,63.81,0,0,1,557,819.85Zm71.13-31.7c-.08,1.34-.17,2.53-.26,3.57H583.94a12.9,12.9,0,0,0,5.59,9.49,16.2,16.2,0,0,0,3.62,1.92,26.42,26.42,0,0,0,9.64,1.59,56,56,0,0,0,10.47-1,39,39,0,0,0,8.38-2.41l.1.59,2.5,15.14a26.49,26.49,0,0,1-4.16,1.56,54.28,54.28,0,0,1-5.78,1.37c-2.13.39-4.4.71-6.83,1a68.15,68.15,0,0,1-7.28.39,43.15,43.15,0,0,1-15.84-2.65l-.21-.08a31.3,31.3,0,0,1-11.31-7.47,29.69,29.69,0,0,1-6.63-11.25,44.51,44.51,0,0,1-2.15-14,41.69,41.69,0,0,1,2.8-15.92,34.22,34.22,0,0,1,7.34-11.38,30.62,30.62,0,0,1,10.47-6.89A32.73,32.73,0,0,1,596.81,788a35,35,0,0,1,13.69,2.51,8.09,8.09,0,0,1,.76.31,27,27,0,0,1,8.56,6.09q8.46,8.89,8.45,26.19C628.27,824.18,628.23,825.42,628.14,826.76ZM620.81,500.5q-11-17.78-40.59-17.77A113.43,113.43,0,0,0,558,484.8q-10.37,2.08-18.66,4.45v237H451.06V280.68l88.28-14.22V415.78a180.63,180.63,0,0,1,22.81-5.63,143.07,143.07,0,0,1,27-2.67q37.9,0,63.1,10.37t40.29,29.33q15.12,19,21.33,45t6.22,58.07v176H631.77V560.94Q631.77,518.28,620.81,500.5Zm99.76,320.28Q709.65,828,689.37,828H683v30.16H662.72V769.36a116.72,116.72,0,0,1,14-1.82q7.41-.51,13-.52,15.54,0,25.5,4.22a32.16,32.16,0,0,1,5.44,2.87q10.78,7.08,10.79,23.2T720.57,820.78Zm48.06,22.92-2.69,15.75a48,48,0,0,1-13.71-1.82c-.44-.14-.87-.29-1.28-.44a4.08,4.08,0,0,1-.54-.22,18.82,18.82,0,0,1-6.5-4.08,15.69,15.69,0,0,1-4.16-7.41,39.89,39.89,0,0,1-1.11-9.82V760.39L758,757.27v74.49a25.42,25.42,0,0,0,.39,4.68,8,8,0,0,0,1.5,3.51,7.8,7.8,0,0,0,3.18,2.34l.62.25a19.18,19.18,0,0,0,5,.92Zm63,12.11a107.69,107.69,0,0,1-12.74,2.67,105.11,105.11,0,0,1-16.38,1.23,39.14,39.14,0,0,1-14.2-2.23l-.29-.11a22,22,0,0,1-9.17-6.56A25.67,25.67,0,0,1,774,840.73a54.36,54.36,0,0,1-1.43-12.87V789.77h19.37v35.75q0,9.36,2.47,13.52a7.83,7.83,0,0,0,4.28,3.42h0a14.84,14.84,0,0,0,4.93.73c1.39,0,2.86-.06,4.42-.19s3-.28,4.16-.46V789.77h19.37Zm52.71-1Q876.7,860,862.79,860a61.86,61.86,0,0,1-15.15-1.56,75.2,75.2,0,0,1-7.59-2.27l0,0-.75-.31,3.25-15.73a63.69,63.69,0,0,0,10.14,3.06,49.1,49.1,0,0,0,10.27,1.1c3.55,0,6.07-.34,7.54-1s2.21-2,2.21-4c0-1.56-1-2.92-2.86-4.09a40.89,40.89,0,0,0-5.22-2.58l-.23-.09c-1-.42-2.08-.85-3.26-1.3-1-.37-2-.76-3-1.14-1.89-.77-3.67-1.56-5.31-2.37a24.25,24.25,0,0,1-6.3-4.35,17.49,17.49,0,0,1-4-6,22.23,22.23,0,0,1-1.43-8.45q0-9.62,7.15-15.21T867.86,788a62.65,62.65,0,0,1,12,1.11,55.71,55.71,0,0,1,9.1,2.4v0l-3.37,15a71.86,71.86,0,0,0-7.34-2.08,40.43,40.43,0,0,0-8.91-.91q-9.1,0-9.1,5.07a5.21,5.21,0,0,0,.39,2.08,4.47,4.47,0,0,0,1.56,1.76,23.05,23.05,0,0,0,3.18,1.83c.87.42,1.88.86,3,1.33.21.1.43.19.66.28l1.43.55c1.31.48,2.55,1,3.72,1.45l.75.31A64.59,64.59,0,0,1,881,821.1a25.16,25.16,0,0,1,6.56,4.95,15.26,15.26,0,0,1,3.39,5.91,26.5,26.5,0,0,1,1,7.52Q891.91,849.59,884.3,854.78ZM1027,615.6h-99V725.21H847.47V615.6h-99V541.53h99V431.92h80.58V541.53h99Z"/><path class="cls-1" d="M409,817.07a27.19,27.19,0,0,1,1.24-4.87,13,13,0,0,1,2.4-4.23,11.63,11.63,0,0,1,3.9-2.92,13,13,0,0,1,5.59-1.11,12.29,12.29,0,0,1,5.66,1.17,11.92,11.92,0,0,1,3.77,3,12.24,12.24,0,0,1,2.21,4.16,20,20,0,0,1,.84,4.81Z"/><path class="cls-1" d="M609.55,817.07H583.94a27.19,27.19,0,0,1,1.24-4.87,13,13,0,0,1,2.4-4.23,11.63,11.63,0,0,1,3.9-2.92,13,13,0,0,1,5.59-1.11,12.29,12.29,0,0,1,5.66,1.17,11.92,11.92,0,0,1,3.77,3,12.24,12.24,0,0,1,2.21,4.16A20,20,0,0,1,609.55,817.07Z"/><path class="cls-2" d="M705.23,807.84q-5.33,2.86-15.86,2.86H683v-26c1-.08,2.28-.17,3.71-.26s2.88-.13,4.35-.13a50.88,50.88,0,0,1,8.06.59A17.5,17.5,0,0,1,705.3,787a10.37,10.37,0,0,1,3.9,4,12.81,12.81,0,0,1,1.36,6.24Q710.56,805,705.23,807.84Z"/><path class="cls-1" d="M710.56,797.18q0,7.8-5.33,10.66t-15.86,2.86H683v-26c1-.08,2.28-.17,3.71-.26s2.88-.13,4.35-.13a50.88,50.88,0,0,1,8.06.59A17.5,17.5,0,0,1,705.3,787a10.37,10.37,0,0,1,3.9,4A12.81,12.81,0,0,1,710.56,797.18Z"/></g></g></svg>